<?xml version="1.0" standalone="no"?>
<!DOCTYPE svg PUBLIC "-//W3C//DTD SVG 20010904//EN"
 "http://www.w3.org/TR/2001/REC-SVG-20010904/DTD/svg10.dtd">
<svg version="1.0" xmlns="http://www.w3.org/2000/svg"
 width="16.000000pt" height="16.000000pt" viewBox="0 0 16.000000 16.000000"
 preserveAspectRatio="xMidYMid meet">
<metadata>
Created by potrace 1.11, written by Peter Selinger 2001-2013
</metadata>
<g transform="translate(0.000000,16.000000) scale(0.006250,-0.006250)"
fill="#000000" stroke="none">
<path d="M2200 2490 c-13 -8 -12 -10 3 -10 9 0 17 5 17 10 0 12 -1 12 -20 0z"/>
<path d="M2274 2464 c-18 -14 -18 -15 4 -4 12 6 22 13 22 15 0 8 -5 6 -26 -11z"/>
<path d="M690 2450 c0 -20 -16 -28 -22 -10 -2 6 -8 6 -18 0 -13 -8 -13 -13 3
-41 9 -17 17 -36 17 -42 0 -7 -10 6 -23 27 -20 36 -62 62 -51 31 4 -9 -1 -12
-14 -8 -36 9 -35 -26 3 -68 19 -22 35 -47 35 -57 -1 -14 -3 -14 -13 4 -7 12
-25 36 -40 54 -24 27 -31 31 -50 23 -21 -9 -20 -11 15 -34 35 -22 67 -73 55
-85 -3 -3 -8 3 -11 14 -8 25 -83 85 -97 77 -7 -5 -6 -11 2 -21 6 -7 15 -12 19
-9 4 2 16 -2 26 -10 10 -8 14 -15 8 -15 -5 0 -16 6 -24 13 -8 6 -5 0 8 -14 29
-33 28 -43 -3 -23 -14 9 -25 22 -25 29 0 16 -28 40 -37 32 -3 -4 0 -13 6 -21
10 -12 9 -14 -7 -9 -14 3 -21 -2 -25 -16 -3 -14 -13 -21 -28 -21 -23 0 -22 -1
7 -27 17 -16 23 -23 15 -17 -23 16 -53 25 -46 15 3 -5 1 -12 -5 -16 -6 -4 -8
-11 -5 -16 4 -5 0 -9 -7 -9 -7 0 5 -9 27 -19 l40 -19 -45 -8 -45 -8 33 -8 c39
-10 42 -28 5 -29 l-28 -1 30 -7 30 -7 -35 -9 -35 -8 50 -7 50 -6 -38 -8 c-27
-6 -35 -11 -26 -17 8 -4 25 -5 39 -2 l25 6 -25 -22 c-14 -13 -19 -19 -12 -16
8 4 20 -1 28 -11 9 -11 13 -13 9 -4 -6 13 -5 13 7 0 14 -17 31 -18 67 -6 29
10 51 -13 51 -52 0 -32 17 -19 26 21 4 17 9 26 11 20 3 -9 10 -10 24 -3 23 13
25 4 4 -16 -10 -10 -14 -31 -11 -64 1 -29 -2 -51 -8 -54 -7 -3 -7 -5 1 -5 7
-1 10 -8 6 -17 -6 -15 3 -16 77 -12 51 3 86 10 88 16 2 7 13 12 25 12 18 0 19
2 7 11 -11 7 3 8 45 4 45 -4 56 -3 45 6 -12 8 -8 9 18 5 37 -6 41 5 10 34
l-22 20 21 0 c23 0 83 -31 83 -42 0 -5 -8 -8 -17 -8 -15 0 -14 -2 3 -16 17
-14 17 -15 1 -10 -11 3 -16 2 -12 -4 3 -6 17 -10 29 -10 13 0 29 -7 36 -15 8
-10 16 -12 19 -6 4 6 18 7 31 4 25 -7 25 -7 -5 -13 -17 -4 -42 -1 -57 7 -40
19 -53 16 -27 -8 21 -18 22 -20 4 -14 -13 4 -7 -6 17 -28 29 -26 35 -36 26
-45 -9 -9 -6 -12 16 -12 15 0 25 4 21 10 -3 6 5 10 19 10 32 0 43 -18 14 -22
-18 -3 -14 -7 22 -20 44 -16 44 -16 13 -17 -17 -1 -35 4 -38 9 -8 12 -35 13
-35 1 0 -5 17 -13 38 -19 36 -9 36 -9 12 -19 l-24 -10 21 -12 c12 -6 31 -11
42 -11 12 0 21 -4 21 -10 0 -5 -10 -10 -22 -10 -17 0 -19 -3 -10 -12 7 -7 12
-20 12 -29 0 -9 8 -20 17 -23 14 -6 15 -9 4 -15 -11 -7 -9 -11 9 -21 12 -6 19
-14 16 -17 -3 -4 -1 -13 6 -20 9 -11 9 -17 -3 -24 -10 -7 -8 -8 11 -7 14 2 25
-2 26 -9 1 -7 3 -14 4 -15 1 -2 4 -16 6 -32 1 -16 13 -39 25 -52 12 -13 18
-24 13 -24 -5 0 -1 -7 9 -14 12 -9 14 -16 8 -21 -8 -4 -8 -12 0 -26 5 -11 9
-30 7 -42 -2 -12 4 -28 12 -35 13 -11 11 -11 -8 -2 -13 7 -21 14 -18 17 5 6
-54 59 -63 56 -3 -1 -15 6 -25 15 -18 16 -19 16 -12 -3 27 -70 45 -129 41
-133 -3 -3 -5 0 -5 7 0 7 -5 9 -11 6 -7 -5 -6 -14 3 -28 17 -27 21 -74 8 -82
-5 -3 -7 1 -4 9 8 22 -6 42 -17 25 -6 -9 -8 -3 -5 18 2 18 -1 30 -5 27 -5 -3
-9 -12 -9 -19 0 -9 -12 -2 -30 17 -36 37 -40 18 -6 -26 28 -37 66 -110 66
-128 1 -7 17 -31 36 -53 20 -22 33 -34 29 -27 -3 7 10 1 31 -13 20 -14 41 -25
47 -25 6 0 22 -10 36 -22 l26 -23 -23 26 c-25 29 -22 69 4 48 17 -14 19 3 3
32 -9 17 -7 20 8 17 10 -2 23 -9 28 -16 12 -15 79 -26 70 -12 -9 15 11 12 24
-4 9 -11 5 -13 -24 -10 -36 2 -57 -12 -35 -26 8 -5 7 -9 -5 -14 -10 -3 -23 -2
-29 3 -6 5 -22 12 -35 16 -38 12 -16 -11 35 -37 26 -12 49 -30 52 -38 3 -8 10
-18 16 -22 7 -5 3 -8 -8 -8 -11 0 -30 10 -43 22 -39 37 -36 13 7 -40 48 -61
50 -71 10 -42 -17 12 -28 25 -25 30 3 5 -1 12 -8 17 -7 4 -21 19 -31 33 l-17
25 6 -30 c4 -16 8 -35 10 -41 2 -6 -3 -11 -11 -11 -8 0 -14 4 -14 9 0 5 -7 16
-15 24 -21 21 -18 4 3 -24 10 -13 26 -24 37 -26 10 -1 19 -11 20 -23 1 -15 -3
-19 -17 -15 -18 4 -25 -12 -9 -22 9 -6 22 -46 16 -46 -7 0 -40 74 -40 89 0 8
-6 16 -14 19 -13 4 -11 -9 7 -57 6 -16 -9 -9 -42 18 -18 15 -19 15 -13 -2 4
-11 10 -31 14 -45 l6 -27 -21 25 c-12 14 -21 19 -22 12 0 -7 -4 -10 -10 -7 -5
3 -10 -1 -10 -9 0 -8 5 -18 10 -21 6 -3 10 -11 10 -18 0 -6 -7 -2 -15 10 -8
11 -23 23 -35 26 -16 4 -18 2 -10 -13 7 -14 5 -19 -9 -23 -10 -2 -26 0 -35 5
-11 6 -21 4 -32 -6 -16 -17 -29 -21 -20 -8 2 4 -4 13 -14 19 -15 10 -19 9 -23
-7 -2 -10 0 -24 7 -31 6 -7 -5 0 -26 15 -20 15 -39 34 -42 43 -4 9 -9 14 -12
11 -8 -8 31 -73 44 -73 6 0 16 -5 22 -11 15 -15 -20 -15 -40 0 -13 10 -13 9
-1 -7 29 -36 163 -90 221 -88 14 0 33 10 43 22 l17 21 0 -22 c0 -19 2 -20 15
-10 13 10 15 9 15 -9 0 -12 -4 -19 -10 -16 -5 3 -7 0 -4 -9 9 -22 -12 -77 -41
-108 -14 -15 -25 -31 -25 -35 0 -13 -52 -33 -87 -33 -23 0 -33 -5 -33 -15 0
-8 5 -15 11 -15 8 0 7 -5 -2 -16 -10 -13 -10 -17 0 -24 24 -14 199 -22 349
-16 310 13 358 21 320 49 -16 12 -16 15 3 43 28 43 24 69 -23 130 -33 44 -39
57 -28 64 8 5 17 7 21 4 4 -2 12 3 19 11 9 11 10 18 1 29 -14 17 9 29 37 19
15 -6 15 -5 3 10 -11 14 -11 17 1 17 7 0 21 9 30 19 13 16 14 20 3 25 -8 3
-19 15 -25 27 -9 15 -9 19 -1 14 15 -9 75 5 64 15 -4 4 -17 10 -28 13 -18 4
-18 5 2 6 27 1 41 21 16 21 -11 0 -5 7 17 18 l35 17 -45 6 c-25 3 -35 7 -23 7
32 3 54 13 47 23 -3 5 1 10 8 10 7 1 0 5 -17 9 l-30 7 32 12 c31 12 31 13 13
31 -10 10 -36 20 -57 23 -37 4 -37 4 7 5 39 2 46 5 46 23 0 18 -5 20 -37 17
-21 -2 -35 0 -33 4 3 5 29 8 57 9 l52 0 -55 19 c-33 11 -46 18 -32 19 29 1 32
41 3 41 -11 0 -23 -4 -26 -10 -3 -5 -12 -10 -18 -10 -16 1 35 39 52 40 8 0 11
6 7 16 -3 9 -6 18 -6 20 0 2 -19 2 -42 -1 -42 -5 -43 -5 -9 6 18 5 39 15 46
22 10 10 7 14 -19 24 l-31 11 30 2 c26 1 27 3 10 10 -17 8 -16 9 10 11 24 2
21 3 -15 8 l-45 7 34 10 c19 5 37 16 39 23 3 10 0 11 -16 2 -29 -16 -34 -14
-27 10 6 19 4 21 -18 17 l-26 -5 20 26 20 25 -22 8 c-12 5 -31 6 -43 3 -17 -5
-18 -4 -6 4 8 6 23 11 33 11 10 0 15 5 12 10 -3 6 0 10 7 10 9 0 9 3 -2 10 -8
6 -28 8 -45 5 -24 -4 -26 -3 -10 4 12 5 26 15 33 24 16 19 -7 30 -46 21 -22
-4 -21 -2 8 12 26 13 31 18 18 21 -10 3 -18 9 -18 14 0 6 -9 7 -20 4 -27 -9
-25 3 3 15 21 8 21 9 -7 9 l-28 1 23 21 24 20 -34 -4 -35 -4 25 20 24 20 -23
-6 c-20 -5 -22 -3 -10 11 11 13 11 15 -4 9 -19 -7 -25 7 -8 18 19 12 10 26
-13 20 -21 -6 -21 -5 -3 9 23 18 12 39 -17 31 -20 -6 -20 -5 3 14 28 23 21 27
-13 9 -19 -10 -20 -9 -9 4 10 13 10 17 -3 22 -9 3 -13 11 -10 17 4 6 -2 13
-14 16 -20 5 -21 6 -4 20 17 13 16 14 -7 9 l-25 -5 24 20 23 19 -33 0 c-28 1
-31 2 -16 11 24 14 21 29 -5 29 -23 1 -23 1 2 15 l25 14 -30 2 c-16 1 -39 1
-50 0 -20 -2 -20 -2 0 13 11 8 22 11 25 7 3 -5 14 -5 25 0 17 6 17 8 3 8 -10
1 -18 6 -18 11 0 6 -10 10 -22 11 l-23 0 23 9 c12 5 22 14 22 21 0 6 -7 9 -15
5 -8 -3 -22 -3 -30 0 -14 6 -13 8 2 20 17 13 17 13 0 14 -10 0 -16 4 -13 9 4
5 -12 7 -36 5 -23 -2 -38 -1 -34 4 4 4 15 7 24 8 10 1 29 2 45 3 15 0 27 5 27
10 0 5 -10 7 -22 4 -23 -6 -23 -6 -3 13 49 46 143 109 189 126 61 23 86 44 41
34 -38 -9 -40 -11 119 113 142 112 166 128 166 110 0 -8 4 -8 15 1 10 9 15 9
15 1 0 -6 5 -11 11 -11 6 0 8 9 4 23 -6 19 -3 18 27 -11 25 -24 37 -29 45 -21
17 17 4 39 -22 39 -13 0 -30 6 -37 13 -18 16 -38 20 -38 6 0 -6 -9 -9 -19 -6
-14 3 -18 1 -14 -9 3 -8 0 -14 -7 -14 -12 0 -253 -171 -386 -274 -64 -50 -89
-63 -119 -64 -48 -2 -68 10 -35 20 18 5 12 7 -20 4 -25 -2 -39 -2 -32 1 6 3
10 9 7 13 -3 5 9 14 27 19 l33 9 -30 1 c-17 1 -39 -5 -50 -12 -40 -27 -61 -29
-30 -3 17 14 39 26 50 26 11 0 26 4 33 9 8 5 -8 7 -40 5 -29 -2 -47 -1 -40 2
6 3 12 10 12 15 0 15 -32 10 -52 -8 -10 -9 -21 -14 -24 -11 -3 4 8 14 25 24
37 22 41 39 6 30 -30 -8 -34 10 -5 19 31 10 13 25 -23 19 -24 -4 -28 -3 -17 5
8 6 26 11 40 12 24 2 24 2 2 6 -12 2 -20 9 -17 14 13 21 -53 -1 -90 -30 -20
-16 -20 -16 -2 6 10 11 32 27 48 33 16 7 26 16 23 21 -9 15 -48 10 -89 -11
-21 -11 -40 -18 -42 -16 -7 7 70 47 101 53 25 5 27 7 11 13 -11 4 -34 6 -52 4
-38 -3 -39 -1 -17 20 14 15 14 16 -4 16 -11 0 -25 -7 -32 -15 -7 -8 -18 -15
-24 -15 -6 1 5 15 24 32 30 26 32 30 12 25 -19 -4 -22 -2 -17 11 4 10 -7 5
-24 -12 -32 -31 -43 -26 -14 6 9 10 14 21 11 24 -9 9 -48 -19 -54 -38 -3 -10
-10 -18 -15 -18 -6 0 -2 12 9 28 27 40 34 62 16 55 -7 -3 -14 0 -14 6 0 9 -5
9 -22 0 -18 -10 -20 -9 -15 4 4 12 2 14 -10 10 -11 -4 -14 -2 -9 5 4 7 1 12
-8 12 -9 0 -16 6 -16 13 0 6 -8 3 -18 -9 -9 -11 -30 -28 -47 -39 l-30 -18 28
30 c25 27 35 53 21 53 -4 0 -13 -8 -20 -17 -12 -17 -13 -16 -14 5 0 20 -10 27
-33 23 -4 -1 -16 3 -26 8 -12 7 -22 6 -29 -1 -9 -9 -12 -8 -12 5 0 19 -15 23
-25 7 -3 -5 -11 -10 -16 -10 -6 0 -7 5 -4 10 3 6 1 10 -4 10 -6 0 -11 -12 -11
-27 0 -16 -5 -35 -10 -43 -7 -11 -9 -2 -5 30 3 25 3 40 -1 33 -4 -8 -13 -9
-30 -3 -20 8 -24 6 -25 -8 0 -14 -2 -14 -9 3 -5 11 -9 14 -9 7 -1 -7 -5 -10
-11 -7 -15 9 -12 -10 8 -51 l17 -37 6 29 7 29 1 -32 c2 -54 -18 -47 -45 16
-27 62 -44 78 -44 41z m107 -42 c-3 -7 -5 -2 -5 12 0 14 2 19 5 13 2 -7 2 -19
0 -25z m78 2 c-4 -12 -9 -19 -12 -17 -3 3 -2 15 2 27 4 12 9 19 12 17 3 -3 2
-15 -2 -27z m31 -16 c-4 -9 -9 -15 -11 -12 -3 3 -3 13 1 22 4 9 9 15 11 12 3
-3 3 -13 -1 -22z m41 4 c-3 -8 -6 -5 -6 6 -1 11 2 17 5 13 3 -3 4 -12 1 -19z
m-207 -53 c0 -17 -3 -15 -20 10 -25 38 -25 49 0 28 11 -10 20 -27 20 -38z
m-110 -14 c0 -9 -8 -3 -20 17 -25 41 -25 54 0 23 11 -13 20 -31 20 -40z m350
51 c0 -5 -7 -17 -15 -28 -14 -18 -14 -17 -4 9 12 27 19 34 19 19z m-173 -34
c-3 -7 -5 -2 -5 12 0 14 2 19 5 13 2 -7 2 -19 0 -25z m45 7 c-4 -26 -22 -45
-22 -25 0 12 18 50 24 50 2 0 1 -11 -2 -25z m-197 -41 c4 -35 4 -36 -4 -9 -5
17 -12 39 -16 50 -6 15 -5 17 4 9 6 -6 14 -28 16 -50z m42 34 c-3 -8 -6 -5 -6
6 -1 11 2 17 5 13 3 -3 4 -12 1 -19z m206 7 c-3 -9 -8 -14 -10 -11 -3 3 -2 9
2 15 9 16 15 13 8 -4z m41 0 c-4 -8 -11 -15 -16 -15 -6 0 -5 6 2 15 7 8 14 15
16 15 2 0 1 -7 -2 -15z m106 2 c0 -2 -10 -12 -22 -23 l-23 -19 19 23 c18 21
26 27 26 19z m-65 -38 c-3 -8 -15 -20 -27 -28 -20 -12 -20 -11 3 17 25 31 33
34 24 11z m-291 -28 c2 -17 0 -34 -5 -37 -5 -3 -9 14 -9 37 0 48 8 48 14 0z
m386 35 c0 -2 -8 -10 -17 -17 -16 -13 -17 -12 -4 4 13 16 21 21 21 13z m-160
-27 c-7 -11 -14 -18 -17 -15 -3 3 0 12 7 21 18 21 23 19 10 -6z m175 -20 c-22
-22 -49 -45 -60 -51 -11 -5 3 13 32 41 61 61 84 69 28 10z m-318 -1 c-3 -8 -6
-5 -6 6 -1 11 2 17 5 13 3 -3 4 -12 1 -19z m245 0 c-7 -7 -12 -8 -12 -2 0 14
12 26 19 19 2 -3 -1 -11 -7 -17z m-275 -10 c-3 -8 -6 -5 -6 6 -1 11 2 17 5 13
3 -3 4 -12 1 -19z m55 -19 c-21 -24 -26 -18 -11 15 8 17 15 22 20 15 3 -6 0
-20 -9 -30z m180 19 c-7 -7 -12 -8 -12 -2 0 14 12 26 19 19 2 -3 -1 -11 -7
-17z m128 -18 c-12 -16 -26 -30 -32 -30 -5 0 3 14 19 30 15 17 29 30 31 30 2
0 -6 -13 -18 -30z m-274 -22 c-11 -15 -16 -18 -16 -7 0 16 21 42 28 34 2 -2
-3 -14 -12 -27z m-345 5 c13 -16 12 -17 -3 -4 -10 7 -18 15 -18 17 0 8 8 3 21
-13z m654 7 c-3 -5 -11 -10 -16 -10 -6 0 -7 5 -4 10 3 6 11 10 16 10 6 0 7 -4
4 -10z m-271 -25 c-15 -22 -31 -36 -21 -17 2 4 7 15 10 25 4 9 11 17 17 17 6
0 3 -11 -6 -25z m51 4 c-3 -8 -15 -20 -26 -27 -19 -12 -19 -11 2 17 23 31 34
35 24 10z m57 -1 c-7 -7 -12 -8 -12 -2 0 14 12 26 19 19 2 -3 -1 -11 -7 -17z
m-315 -20 c-3 -7 -5 -2 -5 12 0 14 2 19 5 13 2 -7 2 -19 0 -25z m50 0 c-3 -7
-5 -2 -5 12 0 14 2 19 5 13 2 -7 2 -19 0 -25z m-90 -10 c-3 -7 -5 -2 -5 12 0
14 2 19 5 13 2 -7 2 -19 0 -25z m553 17 c-7 -8 -18 -15 -24 -15 -6 0 -2 7 8
15 25 19 32 19 16 0z m-596 -10 c3 -8 1 -15 -4 -15 -6 0 -10 7 -10 15 0 8 2
15 4 15 2 0 6 -7 10 -15z m351 -22 c-16 -16 -25 -21 -20 -13 14 25 38 50 43
45 3 -2 -8 -17 -23 -32z m-385 1 c0 -8 -4 -12 -10 -9 -5 3 -10 13 -10 21 0 8
5 12 10 9 6 -3 10 -13 10 -21z m535 16 c-3 -5 -14 -10 -23 -9 -14 0 -13 2 3 9
27 11 27 11 20 0z m-650 -18 c-3 -3 -11 0 -18 7 -9 10 -8 11 6 5 10 -3 15 -9
12 -12z m81 -19 c-3 -3 -12 0 -21 7 -11 9 -15 9 -15 1 0 -7 -5 -9 -11 -5 -8 4
-7 9 2 15 13 8 55 -8 45 -18z m191 -10 c-3 -10 -5 -4 -5 12 0 17 2 24 5 18 2
-7 2 -21 0 -30z m143 17 c-6 -11 -13 -20 -16 -20 -2 0 0 9 6 20 6 11 13 20 16
20 2 0 0 -9 -6 -20z m-273 -22 c-3 -8 -6 -5 -6 6 -1 11 2 17 5 13 3 -3 4 -12
1 -19z m483 12 c-20 -13 -33 -13 -25 0 3 6 14 10 23 10 15 0 15 -2 2 -10z
m100 -5 c-7 -9 -15 -13 -19 -10 -3 3 1 10 9 15 21 14 24 12 10 -5z m-689 -12
c13 -16 12 -17 -3 -4 -10 7 -18 15 -18 17 0 8 8 3 21 -13z m206 -15 c-3 -7 -5
-2 -5 12 0 14 2 19 5 13 2 -7 2 -19 0 -25z m203 17 c-7 -9 -15 -13 -17 -11 -7
7 7 26 19 26 6 0 6 -6 -2 -15z m350 10 c0 -8 -62 -37 -67 -31 -4 3 9 12 28 20
39 18 39 17 39 11z m-661 -45 c0 -10 -3 -8 -9 5 -12 27 -12 43 0 25 5 -8 9
-22 9 -30z m48 18 c-3 -8 -6 -5 -6 6 -1 11 2 17 5 13 3 -3 4 -12 1 -19z m156
7 c-3 -9 -8 -14 -10 -11 -3 3 -2 9 2 15 9 16 15 13 8 -4z m-33 -10 c0 -8 -4
-15 -10 -15 -5 0 -7 7 -4 15 4 8 8 15 10 15 2 0 4 -7 4 -15z m265 5 c-3 -5
-11 -10 -16 -10 -6 0 -7 5 -4 10 3 6 11 10 16 10 6 0 7 -4 4 -10z m-171 -15
c-4 -8 -11 -15 -16 -15 -6 0 -5 6 2 15 7 8 14 15 16 15 2 0 1 -7 -2 -15z m536
11 c0 -2 -8 -10 -17 -17 -16 -13 -17 -12 -4 4 13 16 21 21 21 13z m-336 -21
c-6 -16 -24 -21 -24 -7 0 11 11 22 21 22 5 0 6 -7 3 -15z m-586 -13 c2 -7 -3
-12 -10 -12 -8 0 -15 7 -15 15 0 18 19 15 25 -3z m48 -10 c-4 -3 -14 2 -24 12
-16 18 -16 18 6 6 13 -6 21 -14 18 -18z m42 -8 c-4 -3 -12 5 -18 18 -12 22
-12 22 6 6 10 -10 15 -20 12 -24z m254 14 c-7 -7 -12 -8 -12 -2 0 14 12 26 19
19 2 -3 -1 -11 -7 -17z m443 12 c-11 -5 -27 -9 -35 -9 -13 -1 -13 0 0 9 8 5
24 9 35 9 l20 0 -20 -9z m-393 -32 c-7 -7 -12 -8 -12 -2 0 14 12 26 19 19 2
-3 -1 -11 -7 -17z m58 7 c-7 -8 -18 -15 -24 -15 -6 0 -2 7 8 15 25 19 32 19
16 0z m-394 -33 c-4 -3 -14 2 -24 12 -16 18 -16 18 6 6 13 -6 21 -14 18 -18z
m557 21 c-7 -2 -19 -2 -25 0 -7 3 -2 5 12 5 14 0 19 -2 13 -5z m183 -18 c-11
-8 -27 -15 -35 -15 -10 1 -7 6 9 15 33 19 50 18 26 0z m-346 -15 c0 -5 -5 -10
-11 -10 -5 0 -7 5 -4 10 3 6 8 10 11 10 2 0 4 -4 4 -10z m80 0 c-8 -5 -19 -10
-25 -10 -5 0 -3 5 5 10 8 5 20 10 25 10 6 0 3 -5 -5 -10z m435 -10 c-3 -5 -11
-10 -16 -10 -6 0 -7 5 -4 10 3 6 11 10 16 10 6 0 7 -4 4 -10z m-970 -10 c-3
-5 -12 -10 -18 -10 -7 0 -6 4 3 10 19 12 23 12 15 0z m835 -5 c-7 -8 -17 -15
-22 -15 -6 0 -5 7 2 15 7 8 17 15 22 15 6 0 5 -7 -2 -15z m-180 1 c0 -2 -7 -7
-16 -10 -8 -3 -12 -2 -9 4 6 10 25 14 25 6z m215 -26 c-9 -16 -20 -30 -24 -30
-5 0 -3 14 5 30 9 17 20 30 25 30 5 0 3 -13 -6 -30z m-375 10 c-19 -13 -30
-13 -30 0 0 6 10 10 23 10 18 0 19 -2 7 -10z m75 0 c-3 -5 -14 -10 -23 -10
-15 0 -15 2 -2 10 20 13 33 13 25 0z m350 -29 c-3 -6 -11 -11 -17 -11 -6 0 -6
6 2 15 14 17 26 13 15 -4z m-238 3 c-3 -3 -12 -4 -19 -1 -8 3 -5 6 6 6 11 1
17 -2 13 -5z m-197 -14 c-34 -11 -60 -11 -35 0 11 5 29 8 40 8 16 0 15 -2 -5
-8z m550 0 c-20 -13 -33 -13 -25 0 3 6 14 10 23 10 15 0 15 -2 2 -10z m-463
-6 c-3 -3 -12 -4 -19 -1 -8 3 -5 6 6 6 11 1 17 -2 13 -5z m120 0 c-3 -3 -12
-4 -19 -1 -8 3 -5 6 6 6 11 1 17 -2 13 -5z m409 -15 c-32 -11 -61 -18 -63 -15
-3 3 7 8 22 12 20 5 23 9 13 15 -8 5 6 8 37 8 l50 0 -59 -20z m-832 -22 c-1
-9 2 -14 7 -11 5 3 9 -2 9 -11 0 -9 -4 -13 -10 -10 -13 8 -13 -11 0 -36 16
-29 -5 -24 -29 7 -24 30 -27 54 -9 72 16 16 33 9 32 -11z m248 11 c-9 -9 -15
-9 -24 0 -9 9 -7 12 12 12 19 0 21 -3 12 -12z m368 2 c-20 -13 -33 -13 -25 0
3 6 14 10 23 10 15 0 15 -2 2 -10z m-175 -10 c-3 -5 2 -10 11 -10 10 0 15 -3
11 -6 -3 -3 -15 -3 -28 1 -17 6 -19 9 -8 16 18 11 22 11 14 -1z m240 0 c-3 -5
-14 -10 -23 -10 -15 0 -15 2 -2 10 20 13 33 13 25 0z m49 2 c2 -4 -5 -9 -17
-9 -17 -2 -19 0 -7 7 18 12 18 12 24 2z m-399 -12 c8 -13 -5 -13 -25 0 -13 8
-13 10 2 10 9 0 20 -4 23 -10z m508 3 c-7 -2 -19 -2 -25 0 -7 3 -2 5 12 5 14
0 19 -2 13 -5z m-658 -33 c2 -4 -7 -5 -20 -2 -14 2 -25 8 -25 12 0 10 38 1 45
-10z m569 8 c-5 -8 -2 -9 9 -5 24 9 21 0 -4 -14 -15 -8 -19 -8 -15 0 4 6 1 11
-6 11 -9 0 -9 3 2 10 20 13 23 12 14 -2z m-413 -16 c-7 -2 -18 1 -23 6 -8 8
-4 9 13 5 13 -4 18 -8 10 -11z m52 11 c-7 -2 -19 -2 -25 0 -7 3 -2 5 12 5 14
0 19 -2 13 -5z m247 3 c0 -3 -4 -8 -10 -11 -5 -3 -10 -1 -10 4 0 6 5 11 10 11
6 0 10 -2 10 -4z m41 -27 c-12 -12 -25 -18 -29 -14 -4 4 2 13 12 21 30 22 43
17 17 -7z m-184 5 c-3 -3 -12 -4 -19 -1 -8 3 -5 6 6 6 11 1 17 -2 13 -5z
m-100 -10 c-3 -3 -12 -4 -19 -1 -8 3 -5 6 6 6 11 1 17 -2 13 -5z m-1 -24 c-22
-7 -66 -1 -66 9 0 4 19 5 43 2 30 -3 37 -6 23 -11z m409 1 c-2 -5 -16 -8 -31
-8 -14 0 -21 2 -15 6 15 10 52 11 46 2z m-278 -7 c-3 -3 -12 -4 -19 -1 -8 3
-5 6 6 6 11 1 17 -2 13 -5z m173 -4 c-8 -5 -19 -10 -25 -10 -5 0 -3 5 5 10 8
5 20 10 25 10 6 0 3 -5 -5 -10z m135 -20 c-3 -5 -11 -10 -16 -10 -6 0 -7 5 -4
10 3 6 11 10 16 10 6 0 7 -4 4 -10z m-351 -14 c-6 -16 -35 -26 -76 -26 -46 0
-31 16 25 27 28 5 53 11 54 11 1 1 0 -4 -3 -12z m116 10 c0 -2 -7 -7 -16 -10
-8 -3 -12 -2 -9 4 6 10 25 14 25 6z m-216 -42 c9 -3 16 -10 16 -15 0 -14 -24
-11 -46 6 -16 12 -17 14 -2 15 9 0 23 -3 32 -6z m356 -18 c0 -2 -7 -7 -16 -10
-8 -3 -12 -2 -9 4 6 10 25 14 25 6z m40 0 c0 -2 -8 -10 -17 -17 -16 -13 -17
-12 -4 4 13 16 21 21 21 13z m-317 -13 c-7 -2 -21 -2 -30 0 -10 3 -4 5 12 5
17 0 24 -2 18 -5z m134 1 c-3 -3 -12 -4 -19 -1 -8 3 -5 6 6 6 11 1 17 -2 13
-5z m78 -14 c-10 -11 -23 -20 -29 -20 -6 1 0 10 13 20 30 26 39 26 16 0z
m-152 -7 c-7 -2 -19 -2 -25 0 -7 3 -2 5 12 5 14 0 19 -2 13 -5z m287 4 c0 -2
-10 -12 -22 -23 l-23 -19 19 23 c18 21 26 27 26 19z m-193 -13 c-3 -3 -12 -4
-19 -1 -8 3 -5 6 6 6 11 1 17 -2 13 -5z m295 -14 c-42 -26 -56 -26 -17 0 17
11 35 20 40 20 6 0 -5 -9 -23 -20z m-415 4 c-3 -3 -12 -4 -19 -1 -8 3 -5 6 6
6 11 1 17 -2 13 -5z m70 -20 c-3 -3 -12 -4 -19 -1 -8 3 -5 6 6 6 11 1 17 -2
13 -5z m90 0 c-3 -3 -12 -4 -19 -1 -8 3 -5 6 6 6 11 1 17 -2 13 -5z m128 -14
c-3 -5 -12 -10 -18 -10 -7 0 -6 4 3 10 19 12 23 12 15 0z m-168 -6 c-3 -3 -12
-4 -19 -1 -8 3 -5 6 6 6 11 1 17 -2 13 -5z m-64 -11 c-7 -2 -19 -2 -25 0 -7 3
-2 5 12 5 14 0 19 -2 13 -5z m-28 -23 c4 -6 -10 -10 -34 -10 -23 0 -41 5 -41
10 0 6 15 10 34 10 19 0 38 -4 41 -10z m280 0 c-3 -5 -11 -10 -16 -10 -6 0 -7
5 -4 10 3 6 11 10 16 10 6 0 7 -4 4 -10z m95 6 c0 -2 -7 -7 -16 -10 -8 -3 -12
-2 -9 4 6 10 25 14 25 6z m-305 -16 c-28 -12 -37 -12 -30 0 3 6 16 10 28 9 21
0 21 -1 2 -9z m102 -6 c-3 -3 -12 -4 -19 -1 -8 3 -5 6 6 6 11 1 17 -2 13 -5z
m258 -14 c-3 -5 -12 -10 -18 -10 -7 0 -6 4 3 10 19 12 23 12 15 0z m-278 -6
c-3 -3 -12 -4 -19 -1 -8 3 -5 6 6 6 11 1 17 -2 13 -5z m158 -4 c-3 -5 -12 -10
-18 -10 -7 0 -6 4 3 10 19 12 23 12 15 0z m45 -5 c-7 -8 -18 -15 -24 -15 -6 0
-2 7 8 15 25 19 32 19 16 0z m-335 -5 c-3 -5 -18 -11 -33 -11 -17 -1 -21 -3
-9 -6 17 -4 15 -23 -3 -23 -14 0 -21 33 -8 42 19 11 60 10 53 -2z m460 0 c-3
-5 -16 -15 -28 -21 -22 -12 -22 -12 -3 10 19 21 43 30 31 11z m-66 -14 c-2 -2
-15 -9 -29 -15 -24 -11 -24 -11 -6 3 16 13 49 24 35 12z m-232 -12 c-3 -3 -12
-4 -19 -1 -8 3 -5 6 6 6 11 1 17 -2 13 -5z m-152 -20 c-11 -8 -19 -18 -17 -22
2 -3 -2 -8 -9 -11 -7 -2 -9 1 -5 8 4 6 1 11 -6 11 -8 1 -6 6 6 15 11 8 27 15
35 15 13 -1 12 -4 -4 -16z m102 10 c-3 -3 -12 -4 -19 -1 -8 3 -5 6 6 6 11 1
17 -2 13 -5z m192 -8 c-12 -10 -60 -16 -54 -6 3 5 18 10 32 10 15 0 24 -2 22
-4z m-109 -26 c0 -5 -7 -7 -15 -4 -8 4 -15 8 -15 10 0 2 7 4 15 4 8 0 15 -4
15 -10z m145 -10 c-3 -5 -12 -10 -18 -10 -7 0 -6 4 3 10 19 12 23 12 15 0z
m-285 -22 c0 -6 -10 -8 -22 -4 -13 3 -27 6 -31 6 -5 0 -6 4 -3 9 7 11 56 2 56
-11z m250 -23 c-7 -8 -22 -15 -34 -14 l-21 0 21 9 c12 5 25 14 29 20 4 6 9 9
12 6 3 -3 0 -12 -7 -21z m-270 -5 c0 -5 12 -10 28 -11 15 0 21 -3 14 -6 -18
-7 -62 5 -62 17 0 6 5 10 10 10 6 0 10 -4 10 -10z m85 0 c8 -13 -5 -13 -25 0
-13 8 -13 10 2 10 9 0 20 -4 23 -10z m251 1 c-6 -9 -46 -22 -46 -15 0 3 10 9
23 14 29 11 29 11 23 1z m124 -6 c0 -2 -10 -9 -22 -15 -22 -11 -22 -10 -4 4
21 17 26 19 26 11z m-303 -21 c-3 -3 -12 -4 -19 -1 -8 3 -5 6 6 6 11 1 17 -2
13 -5z m-132 -14 c-3 -5 -11 -10 -16 -10 -6 0 -7 5 -4 10 3 6 11 10 16 10 6 0
7 -4 4 -10z m95 0 c11 -8 7 -9 -15 -4 -37 8 -45 14 -19 14 10 0 26 -5 34 -10z
m285 0 c-3 -5 -12 -10 -18 -10 -7 0 -6 4 3 10 19 12 23 12 15 0z m-100 -10
c-3 -5 -11 -10 -16 -10 -6 0 -7 5 -4 10 3 6 11 10 16 10 6 0 7 -4 4 -10z
m-215 -10 c11 -7 7 -10 -17 -10 -18 0 -33 5 -33 10 0 13 30 13 50 0z m70 -40
c13 -9 13 -10 0 -10 -8 0 -22 5 -30 10 -13 9 -13 10 0 10 8 0 22 -5 30 -10z
m-64 -16 c18 -14 18 -14 -6 -3 -31 14 -36 19 -24 19 6 0 19 -7 30 -16z m234
-18 c0 -3 -4 -8 -10 -11 -5 -3 -10 -1 -10 4 0 6 5 11 10 11 6 0 10 -2 10 -4z
m-245 -16 c3 -5 2 -10 -4 -10 -5 0 -13 5 -16 10 -3 6 -2 10 4 10 5 0 13 -4 16
-10z m60 -40 c8 -13 -5 -13 -25 0 -13 8 -13 10 2 10 9 0 20 -4 23 -10z m92 4
c-3 -3 -12 -4 -19 -1 -8 3 -5 6 6 6 11 1 17 -2 13 -5z m293 -28 c0 -2 -7 -7
-16 -10 -8 -3 -12 -2 -9 4 6 10 25 14 25 6z m10 -46 c-20 -13 -33 -13 -25 0 3
6 14 10 23 10 15 0 15 -2 2 -10z m57 -16 c-3 -3 -12 -4 -19 -1 -8 3 -5 6 6 6
11 1 17 -2 13 -5z m-452 -14 c3 -6 -1 -7 -9 -4 -18 7 -21 14 -7 14 6 0 13 -4
16 -10z m120 0 c3 -5 2 -10 -4 -10 -5 0 -13 5 -16 10 -3 6 -2 10 4 10 5 0 13
-4 16 -10z m290 -20 c-27 -12 -43 -12 -25 0 8 5 22 9 30 9 10 0 8 -3 -5 -9z
m-360 -30 c3 -6 -1 -7 -9 -4 -18 7 -21 14 -7 14 6 0 13 -4 16 -10z m90 0 c3
-5 -1 -10 -9 -10 -8 0 -18 5 -21 10 -3 6 1 10 9 10 8 0 18 -4 21 -10z m215 0
c-8 -5 -19 -10 -25 -10 -5 0 -3 5 5 10 8 5 20 10 25 10 6 0 3 -5 -5 -10z m119
6 c-2 -2 -22 -9 -43 -15 -22 -5 -35 -6 -30 -2 9 9 37 18 63 20 8 0 12 -1 10
-3z m-12 -32 c-3 -3 -12 -4 -19 -1 -8 3 -5 6 6 6 11 1 17 -2 13 -5z m-427 -19
c7 -8 8 -15 2 -15 -5 0 -15 7 -22 15 -7 8 -8 15 -2 15 5 0 15 -7 22 -15z m115
-5 c3 -5 2 -10 -4 -10 -5 0 -13 5 -16 10 -3 6 -2 10 4 10 5 0 13 -4 16 -10z
m210 -26 c-9 -9 -19 -13 -23 -10 -3 4 0 11 8 16 24 15 33 11 15 -6z m-280 -14
c3 -5 2 -10 -4 -10 -5 0 -13 5 -16 10 -3 6 -2 10 4 10 5 0 13 -4 16 -10z m380
0 c-3 -5 -11 -10 -16 -10 -6 0 -7 5 -4 10 3 6 11 10 16 10 6 0 7 -4 4 -10z
m-380 -50 c12 -19 -12 -10 -31 11 -19 22 -19 22 3 10 12 -6 25 -16 28 -21z
m315 16 c-14 -13 -71 -35 -60 -23 7 7 63 37 70 37 2 0 -2 -6 -10 -14z m77 -32
c-3 -3 -12 -4 -19 -1 -8 3 -5 6 6 6 11 1 17 -2 13 -5z m-376 -31 c13 -16 12
-17 -3 -4 -17 13 -22 21 -14 21 2 0 10 -8 17 -17z m386 -59 c-3 -3 -12 -4 -19
-1 -8 3 -5 6 6 6 11 1 17 -2 13 -5z m-320 -60 c-6 -6 -47 9 -47 17 0 5 11 3
25 -3 14 -6 24 -13 22 -14z m128 -2 c-3 -3 -11 0 -18 7 -9 10 -8 11 6 5 10 -3
15 -9 12 -12z m-155 -14 c0 -5 -5 -6 -10 -3 -6 4 -17 2 -24 -4 -10 -8 -16 -8
-24 2 -9 10 -4 13 23 14 19 1 35 -3 35 -9z m35 -28 c3 -6 -1 -7 -9 -4 -18 7
-21 14 -7 14 6 0 13 -4 16 -10z m24 -36 c2 -2 2 -7 -2 -10 -3 -3 -16 2 -29 11
l-23 17 25 -7 c14 -4 27 -9 29 -11z m4 -31 c-7 -2 -19 -2 -25 0 -7 3 -2 5 12
5 14 0 19 -2 13 -5z m24 -29 c-3 -3 -12 -4 -19 -1 -8 3 -5 6 6 6 11 1 17 -2
13 -5z m0 -30 c-3 -3 -12 -4 -19 -1 -8 3 -5 6 6 6 11 1 17 -2 13 -5z m74 -11
c13 -16 12 -17 -3 -4 -10 7 -18 15 -18 17 0 8 8 3 21 -13z m192 10 c-7 -2 -21
-2 -30 0 -10 3 -4 5 12 5 17 0 24 -2 18 -5z m-493 -67 c0 -11 -30 1 -39 16
-11 18 -11 18 14 2 14 -9 25 -17 25 -18z m377 28 c-3 -3 -12 -4 -19 -1 -8 3
-5 6 6 6 11 1 17 -2 13 -5z m-396 -125 c-5 -13 -10 -19 -10 -12 -1 15 10 45
15 40 3 -2 0 -15 -5 -28z m336 -182 c63 -47 89 -79 78 -97 -7 -12 -425 -14
-425 -2 0 12 55 62 138 126 l74 56 36 -19 c20 -10 65 -39 99 -64z"/>
<path d="M2231 2436 c-7 -8 -21 -12 -31 -9 -22 6 -29 -22 -8 -29 22 -8 -31
-29 -71 -30 -38 0 -70 -12 -60 -22 2 -3 27 -6 55 -7 44 -2 57 3 119 44 70 47
80 61 24 31 -37 -19 -49 -11 -24 16 10 11 16 20 13 20 -3 0 -11 -6 -17 -14z"/>
<path d="M2046 2423 c-12 -12 -6 -33 9 -33 8 0 15 6 15 14 0 17 -14 28 -24 19z"/>
<path d="M2120 2410 c0 -19 20 -27 33 -13 8 7 -11 33 -24 33 -5 0 -9 -9 -9
-20z"/>
<path d="M1936 2387 c3 -10 9 -15 12 -12 3 3 0 11 -7 18 -10 9 -11 8 -5 -6z"/>
<path d="M1980 2386 c0 -15 37 -46 55 -45 20 0 20 0 0 8 -11 5 -20 14 -20 22
0 7 -8 15 -17 17 -10 2 -18 1 -18 -2z"/>
<path d="M397 2269 c7 -7 15 -10 18 -7 3 3 -2 9 -12 12 -14 6 -15 5 -6 -5z"/>
<path d="M2075 2239 c-6 -19 0 -38 9 -28 10 12 16 49 7 49 -5 0 -13 -9 -16
-21z"/>
<path d="M2298 2238 c-12 -31 12 -47 41 -29 12 8 12 12 2 25 -16 19 -37 21
-43 4z"/>
<path d="M2155 2215 c-20 -15 -20 -15 -1 -30 25 -19 43 -4 30 25 -8 19 -11 20
-29 5z"/>
<path d="M345 2150 c3 -5 16 -10 28 -10 18 0 19 2 7 10 -20 13 -43 13 -35 0z"/>
<path d="M2047 2144 c-4 -4 -7 -16 -7 -26 0 -14 6 -19 23 -16 14 2 22 10 22
23 0 20 -25 32 -38 19z"/>
<path d="M2272 2128 c2 -15 10 -23 23 -23 30 0 27 39 -3 43 -20 3 -23 0 -20
-20z"/>
<path d="M2370 2124 c0 -14 4 -23 10 -19 6 3 10 15 10 26 0 10 -4 19 -10 19
-5 0 -10 -12 -10 -26z"/>
<path d="M2140 2105 c-15 -18 -6 -45 13 -45 8 0 20 7 27 15 10 12 10 18 0 30
-16 19 -24 19 -40 0z"/>
<path d="M343 2103 c9 -2 23 -2 30 0 6 3 -1 5 -18 5 -16 0 -22 -2 -12 -5z"/>
<path d="M2326 2034 c-14 -37 15 -40 34 -3 9 16 7 19 -9 19 -10 0 -22 -7 -25
-16z"/>
<path d="M2023 2014 c-4 -11 1 -22 12 -30 31 -23 47 -17 43 14 -4 32 -44 45
-55 16z"/>
<path d="M2177 1994 c-4 -4 -7 -16 -7 -26 0 -16 6 -19 33 -16 24 2 32 8 32 23
0 14 -8 21 -25 23 -14 2 -29 0 -33 -4z"/>
<path d="M940 1816 c0 -3 9 -10 20 -16 11 -6 20 -8 20 -6 0 3 -9 10 -20 16
-11 6 -20 8 -20 6z"/>
<path d="M407 1715 c-22 -19 -34 -23 -59 -18 -27 5 -30 4 -25 -11 4 -10 1 -19
-9 -23 -21 -8 -29 4 -14 22 11 13 10 14 -3 9 -22 -8 -30 -34 -16 -51 13 -15
198 -106 264 -130 47 -16 137 -66 181 -98 20 -15 35 -20 44 -15 8 5 18 6 22 4
4 -3 8 2 8 11 0 9 4 14 9 11 5 -3 11 4 14 15 4 13 10 18 17 14 9 -5 10 -1 5
15 -6 20 -4 22 14 17 11 -3 21 -2 21 1 -1 16 -20 35 -37 37 -10 1 -28 7 -40
13 -26 14 -44 16 -23 2 13 -8 13 -10 -1 -10 -9 0 -32 11 -52 24 -19 13 -38 22
-41 19 -3 -3 -22 4 -43 16 -36 20 -37 21 -14 1 30 -26 20 -38 -16 -19 -45 22
-46 22 -39 10 4 -6 3 -11 -3 -11 -5 0 -13 5 -16 11 -4 6 -14 8 -22 5 -8 -3
-12 -2 -9 3 3 4 -11 8 -31 9 -20 1 -41 6 -47 12 -14 14 -29 13 -20 -2 5 -9 3
-9 -9 1 -9 7 -14 17 -11 22 5 8 -9 13 -28 10 -17 -2 7 36 41 66 20 18 32 32
26 32 -5 0 -22 -11 -38 -24z m348 -245 c-3 -5 -14 -10 -23 -9 -14 0 -13 2 3 9
27 11 27 11 20 0z"/>
<path d="M920 1571 c0 -6 4 -13 10 -16 6 -3 7 1 4 9 -7 18 -14 21 -14 7z"/>
<path d="M889 1543 c6 -11 9 -22 8 -24 -1 -2 3 1 9 8 6 7 13 12 15 10 2 -1 3
0 1 3 -2 3 -7 5 -10 5 -4 0 -13 4 -20 9 -11 7 -12 4 -3 -11z"/>
<path d="M708 1277 c-55 -37 -61 -54 -18 -54 39 0 94 45 85 70 -9 22 -11 22
-67 -16z"/>
<path d="M625 1221 c-29 -9 -114 -71 -152 -111 -18 -19 -33 -31 -33 -26 0 5 8
15 18 23 16 13 15 13 -3 4 -11 -5 -28 -15 -38 -23 -16 -12 -16 -15 -2 -34 15
-22 15 -22 110 42 53 35 102 64 109 64 6 0 28 -12 47 -26 48 -36 77 -46 100
-34 14 8 19 7 19 -2 0 -9 3 -9 11 -1 12 12 3 69 -12 79 -5 3 -9 2 -8 -3 5 -26
-3 -40 -21 -39 -11 0 -21 5 -23 11 -5 20 -50 60 -64 57 -8 -2 -20 3 -26 11 -7
8 -20 12 -32 8z"/>
<path d="M1131 1100 c14 -31 19 -36 19 -24 0 6 -7 19 -16 30 -14 18 -14 18 -3
-6z"/>
<path d="M2008 913 c7 -3 16 -2 19 1 4 3 -2 6 -13 5 -11 0 -14 -3 -6 -6z"/>
<path d="M1998 873 c6 -2 18 -2 25 0 6 3 1 5 -13 5 -14 0 -19 -2 -12 -5z"/>
</g>
</svg>
