<?xml version="1.0" standalone="no"?>
<!DOCTYPE svg PUBLIC "-//W3C//DTD SVG 20010904//EN"
 "http://www.w3.org/TR/2001/REC-SVG-20010904/DTD/svg10.dtd">
<svg version="1.0" xmlns="http://www.w3.org/2000/svg"
 width="16.000000pt" height="16.000000pt" viewBox="0 0 16.000000 16.000000"
 preserveAspectRatio="xMidYMid meet">
<metadata>
Created by potrace 1.11, written by Peter Selinger 2001-2013
</metadata>
<g transform="translate(0.000000,16.000000) scale(0.004444,-0.004444)"
fill="#000000" stroke="none">
<path d="M1415 2840 c-209 -209 -393 -387 -410 -394 -41 -20 -75 -53 -75 -74
0 -9 -124 -141 -275 -292 l-275 -274 25 -26 25 -26 -25 -48 c-16 -31 -25 -66
-25 -94 0 -38 5 -50 33 -76 45 -42 89 -54 199 -54 l91 0 546 -546 546 -546
707 708 708 707 -235 235 -235 235 90 85 c50 47 90 88 90 92 0 3 -9 4 -20 1
-15 -4 -19 -2 -15 9 5 12 -2 14 -32 13 -21 -2 -96 -6 -167 -10 l-129 -7 -381
381 -381 381 -380 -380z m1008 -392 c-125 -9 -153 -14 -153 -29 0 -6 18 -8 48
-5 26 3 90 8 142 12 l95 6 72 -74 72 -73 -117 -121 c-64 -66 -139 -144 -166
-173 -31 -33 -60 -54 -80 -58 -28 -6 -29 -7 -8 -12 l23 -6 -21 -23 c-45 -48
-211 -275 -259 -355 -141 -233 -192 -427 -134 -506 39 -52 70 -66 142 -66 63
0 75 4 204 69 76 38 140 73 143 77 6 11 -15 2 -91 -37 -99 -51 -205 -86 -264
-86 -49 0 -58 3 -82 30 -16 17 -31 48 -35 68 -23 122 85 366 279 629 43 58
144 181 178 215 19 19 51 55 72 80 21 25 84 91 140 148 l101 102 228 -227 228
-228 -692 -692 -693 -693 -532 532 c-292 292 -530 535 -528 539 3 4 21 10 40
13 99 19 386 135 518 209 l68 38 30 -26 c17 -14 40 -26 52 -26 57 -3 126 4
210 21 77 16 114 19 96 7 -2 -1 -47 -41 -99 -88 -77 -69 -211 -183 -229 -196
-2 -2 -2 -5 1 -8 5 -5 156 98 168 114 3 4 45 40 94 81 50 41 105 90 123 108
18 17 39 32 48 32 8 0 15 5 15 10 0 6 8 10 19 10 10 0 34 7 54 15 19 8 37 11
41 8 3 -4 6 -2 6 3 0 5 8 11 18 12 21 2 42 7 62 15 8 3 65 21 125 41 61 19
106 35 100 35 -5 1 -93 -22 -195 -49 -101 -28 -190 -50 -197 -50 -7 0 32 52
86 115 55 64 117 141 139 173 47 70 112 189 112 207 0 7 7 26 15 41 19 37 19
54 0 54 -8 0 -15 4 -15 9 0 6 -32 8 -75 5 -60 -3 -73 -1 -69 10 10 26 -29 28
-50 2 -17 -20 -33 -26 -81 -31 -110 -9 -170 -15 -215 -21 l-45 -6 25 27 c41
45 131 110 195 142 215 109 339 82 321 -70 -4 -41 -3 -48 11 -45 22 4 34 60
22 100 -30 105 -126 134 -272 83 -99 -35 -200 -95 -279 -166 -67 -60 -84 -85
-51 -72 11 4 14 3 9 -5 -10 -16 8 -17 89 -8 110 12 193 19 217 17 39 -2 -177
-254 -322 -376 -46 -39 -41 -42 27 -19 10 4 2 -6 -17 -21 -19 -15 -26 -24 -15
-20 11 4 68 19 127 34 59 15 111 31 115 35 10 10 -134 1 -162 -10 -11 -4 9 19
44 51 66 62 180 193 244 281 42 59 44 60 112 63 28 1 58 4 69 7 16 5 18 3 12
-22 -13 -50 -71 -167 -119 -239 -106 -161 -276 -350 -324 -361 -15 -3 -41 -10
-58 -14 -158 -46 -346 -52 -320 -10 5 8 0 11 -16 8 -15 -2 -23 2 -22 10 3 14
-9 16 -23 3 -35 -35 -349 -180 -486 -225 -165 -54 -138 -62 -269 72 -106 107
-137 152 -99 144 8 -2 12 0 8 4 -4 4 5 18 20 32 15 13 21 21 13 17 -9 -6 -12
-4 -7 3 4 7 13 12 21 12 8 0 17 5 21 12 5 7 2 8 -7 3 -8 -4 2 6 21 23 19 17
40 31 47 32 7 0 25 12 40 26 15 15 43 33 62 41 18 8 45 23 60 33 45 34 239 92
323 98 75 5 78 4 86 -19 5 -13 6 -33 2 -44 -11 -30 -111 -140 -146 -159 -38
-21 -111 -86 -97 -86 6 0 16 6 23 14 6 8 19 12 28 9 9 -3 14 -3 10 2 -4 4 15
19 43 33 64 33 131 90 123 104 -4 6 -3 8 3 5 13 -8 49 30 63 67 8 23 7 34 -5
53 -24 36 -61 46 -150 40 -186 -12 -441 -137 -598 -292 -49 -49 -59 -55 -73
-44 -13 11 21 48 256 284 l272 272 32 -15 c22 -12 62 -16 141 -16 104 0 274 9
340 19 17 2 61 7 98 10 l68 5 -24 -32 c-30 -41 -72 -123 -81 -162 -20 -82 55
-121 144 -76 48 24 73 59 68 95 -3 27 -3 27 -33 -14 -16 -22 -49 -51 -73 -63
-43 -23 -43 -23 -58 -3 -26 34 4 126 70 214 30 40 33 53 9 44 -13 -5 -15 -2
-10 11 4 9 3 15 -1 13 -4 -3 -45 -8 -92 -12 -47 -3 -103 -8 -125 -11 -245 -25
-445 -21 -445 9 0 49 208 138 380 163 30 4 58 9 63 10 4 1 22 2 40 4 32 2 32
2 6 10 -47 14 -246 -19 -354 -60 -20 -7 88 108 325 345 l355 355 368 -367 367
-368 -107 -7z m367 -73 l-74 -75 -63 62 c-35 34 -63 65 -63 69 0 3 30 7 67 8
37 1 68 3 69 4 1 1 33 3 71 5 l68 2 -75 -75z m-2122 -870 c-8 -9 -114 -9 -153
-2 -16 4 -42 20 -58 36 -25 24 -29 37 -29 75 1 25 9 60 18 77 l16 32 106 -106
c58 -59 103 -109 100 -112z"/>
<path d="M2500 1970 c-9 -6 -10 -10 -3 -10 6 0 15 5 18 10 8 12 4 12 -15 0z"/>
<path d="M1545 1929 c-69 -34 -156 -97 -163 -118 -2 -7 20 2 49 21 71 45 91
55 55 27 -35 -28 -76 -68 -76 -75 0 -3 17 5 38 17 51 31 182 121 182 125 0 4
-41 -11 -83 -31 -31 -16 -31 -16 -11 2 12 10 34 28 50 40 39 30 30 28 -41 -8z"/>
<path d="M2454 1134 c-18 -14 -18 -14 6 -3 31 14 36 19 24 19 -6 0 -19 -7 -30
-16z"/>
<path d="M2937 2515 c-36 -41 -37 -42 -11 -39 18 2 22 -1 15 -9 -7 -9 71 -12
322 -12 206 1 331 4 330 10 -3 12 -25 12 -372 14 -248 2 -263 3 -249 19 25 29
28 39 15 49 -8 7 -23 -3 -50 -32z"/>
</g>
</svg>
