
<svg width="174px" height="143px" viewBox="19 18 174 143" version="1.1" xmlns="http://www.w3.org/2000/svg" xmlns:xlink="http://www.w3.org/1999/xlink">
    <!-- Generator: Sketch 41.1 (35376) - http://www.bohemiancoding.com/sketch -->
    <desc>Created with Sketch.</desc>
    <defs>
        <rect id="path-1" x="39.7106781" y="39.7106781" width="100" height="100"></rect>
        <mask id="mask-2" maskContentUnits="userSpaceOnUse" maskUnits="objectBoundingBox" x="0" y="0" width="100" height="100" fill="white">
            <use xlink:href="#path-1"></use>
        </mask>
    </defs>
    <use id="Rectangle" stroke="#CBCBCC" mask="url(#mask-2)" stroke-width="2" fill="none" transform="translate(89.710678, 89.710678) rotate(45.000000) translate(-89.710678, -89.710678) " xlink:href="#path-1"></use>
    <path d="M71.0664062,52.2890625 C71.6757843,52.3593754 72.2499973,52.3945312 72.7890625,52.3945312 L73.4921875,52.3945312 C74.4062546,52.6054698 74.8632812,52.7460934 74.8632812,52.8164062 C70.3398211,53.1914081 66.355486,53.8242143 62.9101562,54.7148438 C58.4101337,55.863287 54.41408,57.3749906 50.921875,59.25 C49.5390556,60.2109423 48.8476562,60.9492162 48.8476562,61.4648438 L48.8476562,61.640625 C48.8476562,62.7187554 50.7577934,63.2578125 54.578125,63.2578125 L55.5976562,63.2578125 C55.8789077,63.2578125 56.1132803,63.2812498 56.3007812,63.328125 C57.4960997,63.2578121 58.3632786,63.199219 58.9023438,63.1523438 C59.0195318,63.1523438 59.078125,63.1874996 59.078125,63.2578125 C64.9609669,62.9062482 75.2616452,62.0156321 89.9804688,60.5859375 L101.441406,59.4257812 C101.769533,59.1210922 102.285153,58.3476625 102.988281,57.1054688 L103.164062,57.1054688 C103.703128,57.1054688 104.335934,57.3164041 105.0625,57.7382812 L104.535156,59.0742188 C105.003909,59.0742188 105.238281,59.097656 105.238281,59.1445312 C105.800784,58.9804679 107.593735,58.8398443 110.617188,58.7226562 C112.609385,58.371092 115.56248,58.0664075 119.476562,57.8085938 C120.859382,57.6445304 122.710926,57.5039068 125.03125,57.3867188 C125.148438,57.3867188 125.207031,57.410156 125.207031,57.4570312 L130.9375,56.9296875 L131.289062,57 C131.664064,56.8828119 131.945312,56.8242188 132.132812,56.8242188 L132.835938,56.9296875 C133.070314,56.8593746 133.246093,56.8242188 133.363281,56.8242188 L133.363281,56.9296875 L143.417969,56.2265625 C143.535157,56.2265625 143.59375,56.2499998 143.59375,56.296875 C144.156253,56.2499998 145.832017,56.1679693 148.621094,56.0507812 C148.738282,56.0507812 148.914061,56.0742185 149.148438,56.1210938 C149.734378,56.0742185 152.687473,56.0156254 158.007812,55.9453125 C158.125001,55.9453125 158.183594,55.9101566 158.183594,55.8398438 L158.851562,55.9453125 C163.39846,55.9453125 167.628887,56.0039057 171.542969,56.1210938 C171.613282,56.0742185 172.128901,56.0507812 173.089844,56.0507812 L173.265625,56.2265625 L173.617188,56.1210938 C175.492197,56.1914066 176.476562,56.2499998 176.570312,56.296875 L176.921875,56.2265625 C177.554691,56.2734377 178.011717,56.296875 178.292969,56.296875 L179.523438,56.2265625 C179.734376,56.3437506 181.468734,56.4843742 184.726562,56.6484375 C184.914063,56.6015623 185.148436,56.578125 185.429688,56.578125 C185.429688,56.6484379 185.945307,56.7656242 186.976562,56.9296875 L188.03125,56.8242188 C188.054688,56.9414068 188.160155,57 188.347656,57 L188.699219,57 L189.929688,56.9296875 L189.753906,57.1054688 C190.246096,57.1054688 190.820309,57.1640619 191.476562,57.28125 C191.523438,57.1640619 191.640624,57.1054688 191.828125,57.1054688 L192.003906,57.1054688 C192.238282,57.1289064 192.355469,57.1874995 192.355469,57.28125 L192.355469,57.3867188 C192.355469,57.5039068 192.238282,57.5625 192.003906,57.5625 L191.652344,57.5625 C191.535156,57.5625 191.476562,57.5273441 191.476562,57.4570312 C191.359374,57.4570312 191.300781,57.4921871 191.300781,57.5625 L189.753906,57.4570312 L188.523438,57.5625 C188.312499,57.4921871 188.148438,57.4570312 188.03125,57.4570312 C187.796874,57.5273441 187.621094,57.5625 187.503906,57.5625 C187.503906,57.4453119 186.519541,57.316407 184.550781,57.1757812 C184.550781,57.316407 183.976568,57.410156 182.828125,57.4570312 L181.421875,57.1757812 C179.828117,57.1757812 178.152353,57.246093 176.394531,57.3867188 C176.394531,57.246093 176.277345,57.1757812 176.042969,57.1757812 L172.738281,57.1757812 C172.082028,57.1757812 171.156256,57.152344 169.960938,57.1054688 C169.749999,57.152344 169.574219,57.1757812 169.433594,57.1757812 C168.988279,57.128906 168.531252,57.1054688 168.0625,57.1054688 C167.804686,57.1054688 167.570314,57.128906 167.359375,57.1757812 L165.636719,57 C165.42578,57.0703129 165.191408,57.1054688 164.933594,57.1054688 C164.746093,57.1054688 164.406252,57.0468756 163.914062,56.9296875 C163.023433,57.0468756 162.203129,57.1054688 161.453125,57.1054688 L161.136719,57.1054688 C160.574216,57.1054688 159.988284,57.0703129 159.378906,57 C158.933592,57.0703129 158.535158,57.1054688 158.183594,57.1054688 C158.066406,57.1054688 158.007812,57.0703129 158.007812,57 L157.128906,57.1054688 L154.703125,57.1054688 C154.210935,57.1054688 153.578129,57.128906 152.804688,57.1757812 C152.687499,57.1757812 152.628906,57.152344 152.628906,57.1054688 L151.398438,57.1757812 C148.42186,57.1757812 146.113289,57.2695303 144.472656,57.4570312 L143.242188,57.3867188 C142.32812,57.4804692 140.710949,57.5976555 138.390625,57.7382812 C138.273437,57.7382812 138.214844,57.7031254 138.214844,57.6328125 L130.410156,58.1601562 L130.410156,58.0898438 C127.363266,58.3710952 125.160163,58.5117188 123.800781,58.5117188 L123.273437,58.5117188 C123.132812,58.6523445 119.500036,58.9804662 112.375,59.4960938 C112.093749,59.6132818 109.199246,59.8828104 103.691406,60.3046875 C99.5195104,66.3281551 95.2304908,71.5195095 90.8242188,75.8789062 C87.7773285,78.8789213 83.5586207,82.3241993 78.1679688,86.2148438 C74.7929519,88.6289183 69.0156659,92.0156032 60.8359375,96.375 C54.5077809,99.2578269 49.8203277,101.249994 46.7734375,102.351562 C41.0780965,104.390635 36.1562707,105.609373 32.0078125,106.007812 L32.0078125,105.902344 L31.65625,106.007812 L29.2304688,106.007812 C24.6132582,106.007812 21.3203223,104.613295 19.3515625,101.824219 C19.1171863,101.02734 19,100.25391 19,99.5039062 L19,98.8007812 C19.0234376,98.0742151 19.1406239,97.7109375 19.3515625,97.7109375 L19.1757812,97.5351562 L19.1757812,97.2890625 C19.1992189,96.9843735 19.3164052,96.8320312 19.5273438,96.8320312 L19.3515625,96.65625 C21.2968847,92.4140413 23.2070219,89.5312576 25.0820312,88.0078125 C26.8164149,86.4140545 28.1406204,85.2539099 29.0546875,84.5273438 C29.3828141,84.5273438 29.6171868,84.3515643 29.7578125,84 C30.8828181,83.0624953 32.5585826,81.9609438 34.7851562,80.6953125 C34.7851562,80.5546868 35.5351488,80.1679719 37.0351562,79.5351562 C40.4570484,77.5663964 43.2343643,76.2890654 45.3671875,75.703125 C49.4687705,74.2265551 53.1718585,73.4882812 56.4765625,73.4882812 C60.0156427,73.4882812 62.1015593,74.4374905 62.734375,76.3359375 L62.734375,77.0390625 C62.734375,77.1093754 62.6757818,77.1445312 62.5585937,77.1445312 L62.734375,77.3203125 C62.734375,79.1015714 60.1328385,82.0663855 54.9296875,86.2148438 L54.7539062,86.2148438 L54.2265625,86.0390625 L54.0507812,86.0390625 L54.4023438,86.390625 C54.2851557,86.390625 54.2265625,86.4257809 54.2265625,86.4960938 L53.875,86.390625 L53.5234375,86.390625 L53.875,86.671875 L53.875,86.7773438 C53.265622,86.7773438 52.8671884,86.8945301 52.6796875,87.1289062 L52.6796875,87.1992188 C53.0078141,87.1992188 53.171875,87.2578119 53.171875,87.375 L52.8554688,87.375 L52.5039062,87.3046875 C52.5039062,87.4921884 52.1523473,87.7265611 51.4492188,88.0078125 C51.2148426,87.9609373 51.0390631,87.9375 50.921875,87.9375 L50.3945312,88.359375 C50.6757827,88.359375 50.8515621,88.5117172 50.921875,88.8164062 L50.3945312,88.8164062 L49.5507812,88.8867188 L49.5507812,88.7109375 L49.1992188,88.7109375 L49.375,89.1679688 C48.5078082,89.5898459 47.9804697,89.8007812 47.7929688,89.8007812 C47.5585926,89.8007812 47.4414062,89.7421881 47.4414062,89.625 L47.4414062,89.5195312 L48.4960938,89.1679688 C48.4960938,88.7929669 49.3046794,88.1132862 50.921875,87.1289062 C50.921875,86.9414053 51.3906203,86.5781277 52.328125,86.0390625 C52.328125,85.8281239 52.9609312,85.476565 54.2265625,84.984375 C54.4609387,84.4453098 55.6796765,83.1328229 57.8828125,81.046875 C59.5000081,79.148428 60.3085938,77.6367244 60.3085938,76.5117188 L60.3085938,76.0898438 C60.3085938,74.8945253 59.3242286,74.296875 57.3554688,74.296875 C55.2695208,74.296875 52.2578322,74.8242135 48.3203125,75.8789062 C48.1093739,75.832031 47.9335945,75.8085938 47.7929688,75.8085938 C47.7929688,76.0429699 47.0429763,76.4296848 45.5429688,76.96875 L45.3671875,76.7929688 L45.71875,76.7929688 L45.71875,76.6171875 C44.8984334,76.8046884 44.0898477,77.1328102 43.2929688,77.6015625 L43.46875,77.7773438 L43.46875,77.8476562 L43.1171875,77.8476562 L43.1171875,77.671875 L42.9414062,77.671875 C41.6757749,78.1406273 40.2343831,78.820308 38.6171875,79.7109375 L38.6171875,79.8164062 C38.9687518,79.8164062 39.1445312,79.8749994 39.1445312,79.9921875 C38.9804679,79.9921875 38.2187568,80.3789024 36.859375,81.1523438 L36.6835938,80.9765625 C36.9179699,80.9062496 37.0937494,80.8710938 37.2109375,80.8710938 L37.2109375,80.6953125 L36.859375,80.6953125 C34.8437399,81.7734429 33.4609413,82.6406217 32.7109375,83.296875 L32.5351562,83.296875 L32.5351562,83.6484375 L32.7109375,83.6484375 C32.7109375,83.4140613 32.9453102,83.2617191 33.4140625,83.1914062 L33.4140625,83.296875 C33.4140625,83.5546888 32.7695377,83.9999968 31.4804688,84.6328125 L31.4804688,84.5273438 C31.5976568,84.4335933 31.65625,84.316407 31.65625,84.1757812 L31.4804688,84.1757812 C30.730465,84.5273455 29.7460998,85.3007753 28.5273438,86.4960938 C28.1523419,86.4960938 27.7539084,86.9062459 27.3320312,87.7265625 C26.9335918,87.7265625 26.5234396,88.0898401 26.1015625,88.8164062 C25.3749964,89.7539109 24.7421902,90.4101544 24.203125,90.7851562 C24.3203131,90.8789067 24.3789062,90.9609371 24.3789062,91.03125 C24.1445301,91.03125 23.7929711,91.4531208 23.3242188,92.296875 C23.5585949,92.296875 23.6757812,92.3554682 23.6757812,92.4726562 L23.6757812,92.5429688 L23.5,92.71875 L23.1484375,92.6484375 L23.0078125,92.6484375 L23.0078125,92.8945312 L23.3242188,92.8242188 L23.5,92.8242188 L23.5,92.8945312 C23.5,93.0820322 23.2187528,93.1757812 22.65625,93.1757812 L22.65625,93.28125 C22.7734381,93.28125 22.9374989,93.3046873 23.1484375,93.3515625 C22.3046833,95.5546985 21.7304703,96.65625 21.4257812,96.65625 L21.4257812,96.8320312 C21.4257812,96.9960946 21.4843744,97.078125 21.6015625,97.078125 L21.4257812,97.5351562 L21.4257812,98.1679688 C21.4257812,98.214844 21.3671881,98.2382812 21.25,98.2382812 C21.25,98.3085941 21.3085932,98.34375 21.4257812,98.34375 L21.25,98.9765625 L21.25,99.046875 C21.25,100.101568 21.3671863,100.781248 21.6015625,101.085938 L21.4257812,101.296875 C21.9414088,102.492193 22.8671808,103.499996 24.203125,104.320312 C25.7031325,104.976566 27.4374902,105.304688 29.40625,105.304688 C33.9531477,105.187499 40.4335517,103.46486 48.8476562,100.136719 C52.5039245,98.6835865 58.0585565,96.0117382 65.5117188,92.1210938 C72.6836296,87.8320098 77.7109231,84.5039181 80.59375,82.1367188 C84.2968935,79.3476423 88.4101336,75.5742425 92.9335938,70.8164062 C95.1132921,68.1679555 97.3046765,65.3203277 99.5078125,62.2734375 C99.8593768,61.8281228 100.210936,61.2890657 100.5625,60.65625 L100.386719,60.65625 C75.5662821,63.0937622 61.1640824,64.3125 57.1796875,64.3125 L56.125,64.2421875 L55.1054688,64.3125 C51.0038857,64.3125 48.2265698,63.4804771 46.7734375,61.8164062 C46.6562494,61.7226558 46.5976562,61.5820322 46.5976562,61.3945312 L46.5976562,61.1132812 C46.5976562,59.6367114 49.0820064,58.0078214 54.0507812,56.2265625 C55.3164126,55.6406221 57.1679566,55.0429718 59.6054688,54.4335938 C64.9726831,53.0038991 68.7929574,52.2890625 71.0664062,52.2890625 Z M44.3476562,77.3203125 L44.5234375,77.3203125 C44.5234375,77.414063 44.347658,77.507812 43.9960938,77.6015625 L43.8203125,77.6015625 C43.8203125,77.507812 43.996092,77.414063 44.3476562,77.3203125 Z M42.765625,77.953125 L42.9414062,77.953125 C42.9414062,78.0468755 42.7070336,78.1640618 42.2382812,78.3046875 L42.0625,78.3046875 C42.0625,78.210937 42.2968727,78.0937507 42.765625,77.953125 Z M60.3085938,80.2734375 L60.6601562,80.2734375 C60.6601562,80.2265623 60.7187494,80.0390641 60.8359375,79.7109375 C60.6249989,79.7109375 60.4492195,79.8984356 60.3085938,80.2734375 Z M37.0351562,80.34375 L37.0351562,80.5195312 C37.175782,80.5195312 37.3515614,80.5546871 37.5625,80.625 C37.7968762,80.4374991 37.9140625,80.2851568 37.9140625,80.1679688 C37.5390606,80.2851568 37.2460948,80.34375 37.0351562,80.34375 Z M59.6054688,81.1523438 C59.4414054,81.4101575 59.2070328,81.6445302 58.9023438,81.8554688 L58.9023438,82.03125 C59.0429695,82.03125 59.3945284,81.7617214 59.9570312,81.2226562 L59.6054688,81.1523438 Z M58.375,82.3828125 L58.234375,82.8398438 C58.4921888,82.8398438 58.6562496,82.6875015 58.7265625,82.3828125 L58.375,82.3828125 Z M34.0820312,82.7695312 L34.0820312,82.9453125 C34.0820312,83.0625006 33.9765636,83.1210938 33.765625,83.1210938 L33.5898438,82.9453125 L34.0820312,82.7695312 Z M57.7070312,83.1210938 C57.7070312,83.2617195 57.5898449,83.402343 57.3554688,83.5429688 L57.7070312,83.5429688 C57.7070312,83.4492183 57.8242176,83.332032 58.0585938,83.1914062 L58.0585938,83.1210938 L57.7070312,83.1210938 Z M32.0078125,83.8242188 L32.0078125,83.9296875 C32.2421887,83.9296875 32.359375,83.8593757 32.359375,83.71875 L32.359375,83.6484375 C32.1249988,83.6718751 32.0078125,83.7304683 32.0078125,83.8242188 Z M55.7734375,84.8085938 L55.7734375,84.8789062 C55.9609384,84.8789062 56.1367179,84.7968758 56.3007812,84.6328125 L56.125,84.6328125 C55.8906238,84.6562501 55.7734375,84.7148433 55.7734375,84.8085938 Z M31.3046875,84.703125 L31.3046875,84.8789062 C31.3046875,84.9960943 31.1992198,85.0546875 30.9882812,85.0546875 L30.9882812,84.8789062 C31.0117189,84.7617182 31.1171866,84.703125 31.3046875,84.703125 Z M55.28125,85.1601562 L55.28125,85.4414062 C55.4921886,85.4414062 55.5976562,85.3828131 55.5976562,85.265625 L55.5976562,85.1601562 L55.28125,85.1601562 Z M30.4609375,85.4414062 L30.4609375,85.5117188 C30.4609375,85.6289068 30.3437512,85.6875 30.109375,85.6875 L30.109375,85.6171875 C30.1328126,85.4999994 30.2499989,85.4414062 30.4609375,85.4414062 Z M28.3867188,87.0234375 L28.5273438,87.0234375 L28.5273438,87.1289062 C28.26953,87.6679714 27.9882828,87.9375 27.6835938,87.9375 L27.5078125,87.7265625 C27.9531272,87.2578102 28.246093,87.0234375 28.3867188,87.0234375 Z M27.3320312,88.0078125 L27.5078125,88.1835938 L27.5078125,88.2890625 L27.3320312,88.2890625 C27.0976551,88.2890625 26.9804688,88.2304693 26.9804688,88.1132812 L27.3320312,88.0078125 Z M26.6289062,88.7109375 L26.8046875,88.7109375 L26.8046875,88.8164062 C26.6874994,89.1679705 26.5117199,89.34375 26.2773438,89.34375 L26.1015625,89.34375 C26.2187506,88.9218729 26.3945301,88.7109375 26.6289062,88.7109375 Z M25.4335938,89.8710938 L25.9257812,89.8710938 L25.9257812,89.9765625 C25.1289023,90.7265663 24.7304688,91.1953116 24.7304688,91.3828125 L24.203125,91.3828125 L24.203125,91.3125 C24.8359407,90.82031 25.2460928,90.3398461 25.4335938,89.8710938 Z M46.5976562,90.328125 L46.7734375,90.328125 L46.7734375,90.3984375 C46.7265623,90.5390632 46.3750033,90.7499986 45.71875,91.03125 L45.3671875,91.03125 L45.3671875,90.8554688 L46.5976562,90.328125 Z M44.6992188,91.2070312 L45.015625,91.2070312 L45.015625,91.3125 C45.015625,91.4062505 44.792971,91.5234368 44.3476562,91.6640625 L44.3476562,91.3828125 C44.5820324,91.3828125 44.6992188,91.3242193 44.6992188,91.2070312 Z M23.6757812,92.1210938 L24.0273438,92.1210938 L24.0273438,92.1914062 C24.0273438,92.3085943 23.9101574,92.3671875 23.6757812,92.3671875 L23.6757812,92.1210938 Z M21.953125,93.703125 L21.953125,93.8085938 C21.9765626,93.9257818 22.0937489,93.984375 22.3046875,93.984375 L22.4804688,93.984375 C22.4804688,93.9140621 22.5390619,93.8203131 22.65625,93.703125 L21.953125,93.703125 Z M21.4257812,95.390625 L21.4257812,95.671875 L21.6015625,95.671875 C21.6015625,95.6015621 21.6601557,95.5078131 21.7773438,95.390625 L21.4257812,95.390625 Z M106.574219,48 C106.644532,48 106.679688,48.0351559 106.679688,48.1054688 L106.925781,48 C108.332038,48 109.867179,48.4804639 111.53125,49.4414062 C113.335947,50.8476633 114.238281,52.7226445 114.238281,55.0664062 L114.238281,55.6289062 C114.238281,55.6992191 114.191407,55.734375 114.097656,55.734375 L114.238281,55.9804688 C113.722654,59.4257985 113.031254,61.9218673 112.164062,63.46875 C112.164062,64.5234428 110.593766,67.7343482 107.453125,73.1015625 C107.101561,73.3125011 106.468755,74.1210867 105.554688,75.5273438 C105.367187,75.5507814 105.273438,75.6328118 105.273438,75.7734375 L105.414062,75.984375 C103.820305,78.0937605 102.367194,79.8632741 101.054688,81.2929688 C101.054688,81.3867192 100.585942,81.9726509 99.6484375,83.0507812 L97.75,85.1601562 C97.75,85.4414077 97.1523497,86.1093697 95.9570312,87.1640625 C95.9570312,87.3750011 95.45313,87.8437464 94.4453125,88.5703125 L94.5507812,88.8164062 L94.1640625,89.34375 L94.4453125,89.34375 C97.539078,88.6171839 100.468736,87.8437541 103.234375,87.0234375 C103.234375,87.117188 103.28125,87.1640625 103.375,87.1640625 C103.703127,86.8593735 105.613264,86.2968791 109.105469,85.4765625 L114.097656,84.1757812 C114.519533,84.0117179 114.859374,83.9296875 115.117188,83.9296875 L115.257812,84.1757812 C115.164062,84.1757812 114.261727,84.503903 112.550781,85.1601562 L111.917969,85.1601562 L111.285156,85.0546875 L111.425781,85.265625 C111.214843,85.4062507 110.746097,85.523437 110.019531,85.6171875 C109.574217,85.8515637 109.351562,86.0273432 109.351562,86.1445312 L109.105469,86.0390625 C108.683592,86.0390625 108.472656,86.1093743 108.472656,86.25 C108.566407,86.3906257 108.613281,86.507812 108.613281,86.6015625 L108.472656,86.6015625 C108.332031,86.5312496 108.16797,86.4960938 107.980469,86.4960938 C107.488279,86.4960938 107.101564,86.6367173 106.820312,86.9179688 C106.632812,86.9179688 106.457032,86.8828129 106.292969,86.8125 C106.128905,86.8828129 106,86.9179688 105.90625,86.9179688 L106.046875,87.1640625 C106.046875,87.3046882 105.964845,87.375 105.800781,87.375 L105.660156,87.375 C105.496093,87.375 105.414062,87.3046882 105.414062,87.1640625 C104.992185,87.3750011 104.652345,87.4804688 104.394531,87.4804688 L103.621094,87.4804688 C103.621094,87.6914073 103.457033,87.796875 103.128906,87.796875 L103.375,88.1484375 L103.375,88.2539062 C103.375,88.394532 103.29297,88.4648438 103.128906,88.4648438 C103.035156,88.2539052 102.941407,88.1484375 102.847656,88.1484375 C102.167965,88.1953127 101.828125,88.3007804 101.828125,88.4648438 L100.949219,88.359375 L100.808594,88.359375 L99.9296875,88.921875 L99.7890625,88.921875 L99.7890625,88.7109375 L99.015625,88.8164062 L99.15625,89.0273438 L99.15625,89.1328125 C99.0156243,89.1328125 98.4648486,89.2499988 97.5039062,89.484375 L97.1171875,89.484375 L97.1171875,89.8007812 L96.484375,89.6953125 L96.484375,90.0117188 L95.5703125,90.0117188 L95.5703125,90.1171875 L95.9570312,90.1171875 L95.9570312,90.46875 L95.7109375,90.46875 L95.3242188,90.2578125 C95.066405,90.3984382 94.7734391,90.5039059 94.4453125,90.5742188 C94.2812492,90.5742188 93.9765647,90.503907 93.53125,90.3632812 C93.53125,90.4335941 93.4843755,90.46875 93.390625,90.46875 L93.53125,90.6796875 L93.390625,90.890625 C93.6484388,90.890625 93.7773438,90.9726554 93.7773438,91.1367188 L93.390625,91.3476562 L93.2851562,91.3476562 C93.1914058,91.3476562 93.1445312,91.3125004 93.1445312,91.2421875 C91.5507733,91.8046903 90.5312522,92.5078083 90.0859375,93.3515625 C89.8984366,93.3515625 89.5585962,93.7148401 89.0664062,94.4414062 C87.7538997,95.4023486 87.074219,95.9882802 87.0273438,96.1992188 C86.4179657,96.7851592 85.7734409,97.1953113 85.09375,97.4296875 C84.9296867,97.5703132 84.8125004,97.8281231 84.7421875,98.203125 C84.3671856,98.203125 83.8984403,98.5781212 83.3359375,99.328125 C82.8906228,99.3515626 82.246098,99.9374943 81.4023438,101.085938 C81.0039043,101.085938 80.5820335,101.378903 80.1367188,101.964844 C79.8554673,102.105469 79.644532,102.175781 79.5039062,102.175781 L79.5039062,102.28125 L79.609375,102.527344 C79.1640603,102.597657 78.695315,102.960934 78.203125,103.617188 C77.8749984,103.640625 76.8554773,104.449211 75.1445312,106.042969 C74.9335927,106.042969 74.7226573,106.124999 74.5117188,106.289062 L74.265625,106.289062 L73.984375,106.183594 C73.984375,106.253907 73.9492191,106.289062 73.8789062,106.289062 C73.9492191,106.429688 73.984375,106.535156 73.984375,106.605469 C73.984375,106.769532 73.4335993,107.097654 72.3320312,107.589844 C72.3320312,107.777345 71.957035,107.999999 71.2070312,108.257812 L70.9257812,108.257812 L70.9257812,108.152344 C71.2304703,107.730467 71.7460901,107.332033 72.4726562,106.957031 C72.4960939,106.67578 73.5156149,105.785164 75.53125,104.285156 C75.6250005,104.285156 75.9648408,103.99219 76.5507812,103.40625 C77.300785,102.585933 78.1914011,101.812504 79.2226562,101.085938 C81.6367308,98.8359262 83.0898413,97.5468766 83.5820312,97.21875 C86.4179829,94.4999864 87.9062493,93.1289064 88.046875,93.1054688 L88.046875,92.7890625 L87.90625,92.7890625 L81.9296875,94.125 C78.9062349,94.7812533 76.6445388,95.109375 75.1445312,95.109375 L74.3710938,95.109375 C74.1835928,95.109375 74.019532,95.1445309 73.8789062,95.2148438 C71.1835803,95.2148438 69.3554736,94.2539159 68.3945312,92.3320312 C68.3007808,92.0507798 68.2539062,91.7929699 68.2539062,91.5585938 C68.2539062,89.4257706 71.230439,86.7422037 77.1835938,83.5078125 C80.042983,82.0781179 83.3710748,80.85938 87.1679688,79.8515625 C88.8554772,79.4296854 91.0234243,79.1015637 93.671875,78.8671875 L94.6914062,78.8671875 C95.2070338,78.9140627 95.4648438,79.0195304 95.4648438,79.1835938 C95.019529,79.4882828 94.796875,79.7109368 94.796875,79.8515625 L94.1640625,79.7460938 C92.6874926,80.2617213 90.9882909,80.7070294 89.0664062,81.0820312 C85.9726408,81.5976588 81.5429976,83.285142 75.7773438,86.1445312 C75.7773438,86.2148441 74.5468873,87.1406161 72.0859375,88.921875 C70.7265557,90.3046944 70.046875,91.3007782 70.046875,91.9101562 L70.046875,92.1210938 C70.046875,93.0820361 70.8085861,93.5625 72.3320312,93.5625 C72.3320312,93.6328129 72.6367157,93.6679688 73.2460938,93.6679688 C76.7617363,93.6679688 82.5038664,92.6015732 90.4726562,90.46875 C92.1836023,89.1328058 94.140614,87.1054823 96.34375,84.3867188 C97.6562566,83.027337 99.3203024,81.0703253 101.335938,78.515625 C102.765632,76.7812413 104.7578,73.9101763 107.3125,69.9023438 C109.28126,66.3632636 110.781245,62.9765787 111.8125,59.7421875 C112.140627,58.5234314 112.386718,57.1523514 112.550781,55.6289062 L112.550781,54.8554688 C112.550781,51.8788914 111.320325,50.039066 108.859375,49.3359375 C107.92187,49.2656246 107.113285,49.2304688 106.433594,49.2304688 C102.261698,49.6054706 97.6679938,51.3749842 92.6523438,54.5390625 C90.1210811,56.1796957 87.2265788,58.6874831 83.96875,62.0625 C82.5390554,63.7500084 81.1328194,65.7304574 79.75,68.0039062 C79.8437505,68.0039062 79.890625,68.0507808 79.890625,68.1445312 C78.6953065,69.9023525 78.0976562,71.7773338 78.0976562,73.7695312 C78.0039058,73.7695312 77.9570312,73.8749989 77.9570312,74.0859375 C77.9570312,74.8125036 78.378902,75.4453098 79.2226562,75.984375 L79.3632812,75.984375 C81.3320411,75.984375 83.5468627,74.4375155 86.0078125,71.34375 C86.406252,70.3593701 86.6992178,69.8437502 86.8867188,69.796875 L87.0273438,69.796875 C87.0273438,69.8437502 87.0742183,70.0664043 87.1679688,70.4648438 C86.9804678,71.1445346 86.8046883,71.61328 86.640625,71.8710938 C86.9921893,71.9648442 87.1679688,72.1171864 87.1679688,72.328125 C86.910155,73.1718792 86.0546948,74.2031189 84.6015625,75.421875 C82.7265531,76.523443 81.1914122,77.0742188 79.9960938,77.0742188 C78.3788982,77.0742188 77.1835976,76.4179753 76.4101562,75.1054688 L76.0585938,73.7695312 C76.410158,70.4648272 78.3202952,66.6328343 81.7890625,62.2734375 C83.6640719,60.1171767 85.0703078,58.6757849 86.0078125,57.9492188 C87.8593843,56.0507718 89.8984264,54.4687563 92.125,53.203125 C95.3125159,51.1874899 97.4453071,50.1210943 98.5234375,50.0039062 C101.54689,48.6679621 104.230457,48 106.574219,48 Z M148.691406,52.3242188 C149.371097,52.6054702 149.710938,53.0039037 149.710938,53.5195312 C149.710938,54.0820341 148.351576,55.5585818 145.632812,57.9492188 L131.710938,71.34375 C131.710938,71.2734371 131.664063,71.2382812 131.570312,71.2382812 C131.570312,71.5898455 131.019537,72.2460889 129.917969,73.2070312 C129.894531,73.3007817 129.47266,73.7812457 128.652344,74.6484375 C127.621089,75.8203184 126.730472,76.628904 125.980469,77.0742188 C125.980469,77.425783 124.867199,78.6796767 122.640625,80.8359375 C122.570312,80.8359375 122.277346,81.2109338 121.761719,81.9609375 L121.761719,82.171875 L122.148438,82.171875 L122.148438,82.3828125 C120.55468,83.2500043 119.312504,84.3632745 118.421875,85.7226562 L116.277344,88.2539062 C115.808591,88.8398467 115.503907,89.1328125 115.363281,89.1328125 L115.117188,89.1328125 L115.117188,88.921875 L114.871094,88.921875 C114.871094,89.0390631 114.777345,89.1796867 114.589844,89.34375 L114.589844,89.484375 L114.871094,89.34375 L115.117188,89.34375 L115.117188,89.8007812 C114.10937,90.8789116 113.042974,92.238273 111.917969,93.8789062 C111.238278,94.5351595 110.851563,95.0507794 110.757812,95.4257812 C110.593749,95.4257812 110.218753,96.0234315 109.632812,97.21875 C108.976559,97.8515657 108.425783,98.5898395 107.980469,99.4335938 C107.76953,99.4335938 107.640625,99.6562478 107.59375,100.101562 C107.265623,100.242188 106.667973,101.156242 105.800781,102.84375 C105.566405,102.84375 105.261721,103.324214 104.886719,104.285156 C104.769531,104.285156 104.523439,104.730464 104.148438,105.621094 C102.695305,107.894543 101.96875,109.218748 101.96875,109.59375 C100.656243,111.984387 99.8828137,113.718745 99.6484375,114.796875 C98.8984337,116.039069 98.2656276,118.207016 97.75,121.300781 C97.5859367,122.121098 97.5039062,123.04687 97.5039062,124.078125 L97.609375,124.289062 C97.609375,124.382813 97.5742191,124.429688 97.5039062,124.429688 C97.5039062,126.023445 97.925777,127.417963 98.7695312,128.613281 C99.6367231,130.089851 101.171864,130.828125 103.375,130.828125 C106.351577,130.828125 110.781221,129.386733 116.664062,126.503906 C116.664062,126.574219 116.699218,126.609375 116.769531,126.609375 C116.769531,126.328124 117.624991,125.859378 119.335938,125.203125 C119.335938,124.921874 120.097649,124.511721 121.621094,123.972656 C121.621094,123.808593 122.394524,123.328129 123.941406,122.53125 L124.1875,122.425781 L124.433594,122.425781 L124.433594,122.636719 L120.988281,124.535156 C120.988281,124.69922 120.308601,125.132809 118.949219,125.835938 C116.933584,126.914068 115.703127,127.652342 115.257812,128.050781 L114.976562,127.945312 C114.390622,128.531253 113.582036,128.824219 112.550781,128.824219 L112.550781,128.929688 L112.832031,128.929688 L112.832031,129.175781 C112.222653,129.457033 111.660159,129.597656 111.144531,129.597656 C110.886717,129.925783 110.757812,130.183593 110.757812,130.371094 L109.878906,130.371094 C109.363279,130.417969 109.105469,130.535155 109.105469,130.722656 C109.269532,130.746094 109.351562,130.816406 109.351562,130.933594 C109.351562,131.074219 109.269532,131.144531 109.105469,131.144531 L108.859375,131.144531 C108.437498,131.144531 108.226562,131.074219 108.226562,130.933594 C108.109374,130.933594 107.898439,131.121092 107.59375,131.496094 L107.453125,131.285156 C107.546875,131.285156 107.59375,131.238282 107.59375,131.144531 L107.3125,131.144531 L107.066406,131.285156 L107.207031,131.496094 L107.207031,131.601562 L106.820312,131.601562 L106.433594,131.390625 C106.433594,131.742189 105.882818,131.917969 104.78125,131.917969 C104.78125,132.011719 104.570315,132.09375 104.148438,132.164062 C102.953119,132.070312 102.226564,131.953126 101.96875,131.8125 L101.722656,131.917969 C97.7148237,130.652337 95.7109375,128.074238 95.7109375,124.183594 L95.7109375,123.304688 C95.7109375,120.492173 96.6484281,116.91799 98.5234375,112.582031 C100.445322,108.386698 102.660144,104.402363 105.167969,100.628906 L109.246094,94.6523438 C111.800794,91.3476397 113.078125,89.6601566 113.078125,89.5898438 C113.289064,89.4960933 114.050775,88.5351654 115.363281,86.7070312 L117.542969,84.3867188 L117.402344,84.1757812 L117.683594,83.8242188 L117.683594,83.71875 L117.542969,83.71875 C116.769527,83.9296886 116.253908,84.0351562 115.996094,84.0351562 L115.75,84.0351562 C115.585937,84.0351562 115.503906,83.9648445 115.503906,83.8242188 C118.22267,83.2148407 119.582031,82.5585973 119.582031,81.8554688 C119.746095,81.8554688 120.894521,80.601575 123.027344,78.09375 C123.26172,77.9765619 124.152336,77.015634 125.699219,75.2109375 C125.88672,75.2109375 127.808575,73.2539258 131.464844,69.3398438 C138.613317,62.3319962 142.1875,58.7929691 142.1875,58.7226562 C146.406271,54.9257623 148.539062,52.7929711 148.585938,52.3242188 L148.691406,52.3242188 Z M87.0273438,68.9179688 L87.2734375,68.9179688 L87.2734375,69.1289062 C87.2734375,69.269532 87.1914071,69.3398438 87.0273438,69.3398438 L86.8867188,69.3398438 L86.8867188,69.234375 C86.9804692,69.0937493 87.0273438,68.9882816 87.0273438,68.9179688 Z M138.742188,78.4101562 L139.128906,78.4101562 L139.128906,78.6210938 L138.742188,78.6210938 L138.742188,78.4101562 Z M135.929688,78.9726562 L136.070312,79.1835938 L135.789062,79.2890625 L135.542969,79.2890625 C135.542969,79.195312 135.671874,79.0898443 135.929688,78.9726562 Z M134.910156,79.2890625 L135.402344,79.2890625 L135.402344,79.5351562 L134.910156,79.5351562 L134.910156,79.2890625 Z M133.75,79.3945312 L133.890625,79.640625 C133.890625,79.7109379 133.210944,79.9335919 131.851562,80.3085938 C131.664062,80.3085938 131.570312,80.2265633 131.570312,80.0625 C132.835944,79.6171853 133.562499,79.3945312 133.75,79.3945312 Z M122.640625,79.640625 L122.640625,79.9570312 C122.804688,79.9570312 122.886719,79.8867195 122.886719,79.7460938 L122.886719,79.640625 L122.640625,79.640625 Z M131.078125,80.0625 L131.21875,80.3085938 L130.9375,80.4140625 C130.773437,80.3437496 130.644532,80.3085938 130.550781,80.3085938 C130.26953,80.4492195 130.023439,80.5195312 129.8125,80.5195312 L129.8125,80.4140625 C129.8125,80.1796863 130.234371,80.0625 131.078125,80.0625 Z M129.144531,80.5195312 L129.144531,80.8359375 C128.816405,80.8359375 128.523439,80.9531238 128.265625,81.1875 L128.125,80.9414062 L128.125,80.8359375 C128.195313,80.6249989 128.535153,80.5195312 129.144531,80.5195312 Z M125.839844,81.1875 L125.980469,81.3984375 C125.980469,81.6328137 125.546879,81.7851559 124.679688,81.8554688 L124.574219,81.609375 C125.277347,81.3281236 125.699218,81.1875 125.839844,81.1875 Z M126.367188,81.1875 C126.531251,81.2109376 126.613281,81.2812494 126.613281,81.3984375 L126.367188,81.5039062 L126.367188,81.1875 Z M123.800781,81.8554688 L124.1875,81.8554688 L124.1875,81.9609375 C124.1875,82.1015632 124.10547,82.171875 123.941406,82.171875 L123.554688,82.171875 L123.554688,82.0664062 C123.578125,81.9257805 123.660156,81.8554688 123.800781,81.8554688 Z M99.296875,89.2382812 L99.4023438,89.2382812 C99.5664071,89.2617189 99.6484375,89.3437493 99.6484375,89.484375 L99.6484375,89.5898438 C99.6015623,89.5898438 99.355471,89.6249996 98.9101562,89.6953125 L98.9101562,89.484375 C99.16797,89.484375 99.296875,89.4023446 99.296875,89.2382812 Z M112.832031,91.3476562 C112.832031,91.4179691 112.785157,91.453125 112.691406,91.453125 C112.785157,91.5937507 112.832031,91.710937 112.832031,91.8046875 L113.078125,91.8046875 L113.078125,91.5585938 C113.078125,91.417968 112.996095,91.3476562 112.832031,91.3476562 Z M106.292969,100.523438 L106.292969,100.734375 C106.457032,100.664062 106.585937,100.628906 106.679688,100.628906 L106.679688,100.523438 L106.292969,100.523438 Z M104.253906,103.617188 L104.253906,103.828125 L104.394531,103.828125 C104.558595,103.828125 104.640625,103.757813 104.640625,103.617188 L104.253906,103.617188 Z" id="JH" stroke="none" fill="#D7CABE" fill-rule="evenodd"></path>
</svg>